<svg xmlns="http://www.w3.org/2000/svg" width="2400" height="1350" viewBox="0 0 2400 1350" role="img" aria-label="Motion-blur bike with a digital tail-stream">
  <defs>
    <linearGradient id="g0" x1="0" y1="0" x2="1" y2="1">
      <stop offset="0" stop-color="#05070c"/>
      <stop offset="1" stop-color="#0b1020"/>
    </linearGradient>
    <radialGradient id="goldGlow" cx="30%" cy="24%" r="70%">
      <stop offset="0" stop-color="rgba(212,175,55,.26)"/>
      <stop offset="0.55" stop-color="rgba(212,175,55,.08)"/>
      <stop offset="1" stop-color="rgba(212,175,55,0)"/>
    </radialGradient>
    <radialGradient id="blueGlow" cx="80%" cy="18%" r="70%">
      <stop offset="0" stop-color="rgba(255,210,160,.08)"/>
      <stop offset="1" stop-color="rgba(120,180,255,0)"/>
    </radialGradient>
    <filter id="blur" x="-20%" y="-20%" width="140%" height="140%">
      <feGaussianBlur stdDeviation="8"/>
    </filter>
  </defs>

  <rect width="2400" height="1350" fill="url(#g0)"/>
  <rect width="2400" height="1350" fill="url(#goldGlow)"/>
  <rect width="2400" height="1350" fill="url(#blueGlow)"/>

  <g opacity="0.8"><path d="M 124.6 42.6 Q 59.2 306.3 227.7 611.6" stroke="rgba(243,210,122,0.115)" stroke-width="1.81" fill="none"/><path d="M 870.3 921.0 Q 1237.8 1027.3 1901.0 732.1" stroke="rgba(243,210,122,0.063)" stroke-width="1.30" fill="none"/><path d="M 1899.8 300.5 Q 1216.3 685.8 714.9 824.4" stroke="rgba(243,210,122,0.074)" stroke-width="1.53" fill="none"/><path d="M 1081.8 828.5 Q 1005.2 521.2 748.2 240.7" stroke="rgba(243,210,122,0.068)" stroke-width="1.44" fill="none"/><path d="M 965.4 979.4 Q 703.2 979.5 1043.2 1142.7" stroke="rgba(243,210,122,0.096)" stroke-width="1.79" fill="none"/><path d="M 638.2 62.7 Q 472.2 548.2 609.6 1103.5" stroke="rgba(243,210,122,0.122)" stroke-width="1.58" fill="none"/><path d="M 1365.9 1129.7 Q 1698.5 1332.6 2535.3 1167.2" stroke="rgba(243,210,122,0.064)" stroke-width="1.68" fill="none"/><path d="M 772.7 1325.1 Q 850.0 895.3 528.8 69.7" stroke="rgba(243,210,122,0.075)" stroke-width="2.15" fill="none"/><path d="M -62.6 -2.9 Q 1270.1 376.0 1916.9 652.8" stroke="rgba(243,210,122,0.103)" stroke-width="2.12" fill="none"/><path d="M 250.6 75.8 Q 292.9 557.3 428.3 1328.8" stroke="rgba(243,210,122,0.102)" stroke-width="1.71" fill="none"/><path d="M 2371.8 165.2 Q 1895.7 247.5 663.3 -1.2" stroke="rgba(243,210,122,0.104)" stroke-width="1.88" fill="none"/><path d="M 2470.4 738.9 Q 1951.8 813.4 1495.9 1173.8" stroke="rgba(243,210,122,0.061)" stroke-width="1.20" fill="none"/><path d="M 484.9 1225.8 Q 968.7 1190.6 952.4 914.7" stroke="rgba(243,210,122,0.116)" stroke-width="1.72" fill="none"/><path d="M 1491.0 727.8 Q 1156.6 748.7 496.8 1044.9" stroke="rgba(243,210,122,0.127)" stroke-width="1.43" fill="none"/></g>
  <g><circle cx="533.6" cy="351.5" r="4.1" fill="rgba(212,175,55,0.101)"/><circle cx="2092.3" cy="809.0" r="5.4" fill="rgba(212,175,55,0.139)"/><circle cx="947.4" cy="106.9" r="5.0" fill="rgba(212,175,55,0.077)"/><circle cx="547.8" cy="1239.4" r="3.3" fill="rgba(212,175,55,0.098)"/><circle cx="240.2" cy="865.0" r="4.7" fill="rgba(212,175,55,0.084)"/><circle cx="791.8" cy="1079.6" r="3.9" fill="rgba(212,175,55,0.096)"/><circle cx="2205.0" cy="531.4" r="3.8" fill="rgba(212,175,55,0.091)"/><circle cx="1831.1" cy="492.7" r="5.2" fill="rgba(212,175,55,0.122)"/><circle cx="1859.5" cy="250.4" r="3.4" fill="rgba(212,175,55,0.061)"/><circle cx="926.9" cy="104.2" r="5.9" fill="rgba(212,175,55,0.107)"/><circle cx="827.8" cy="1228.4" r="5.4" fill="rgba(212,175,55,0.088)"/><circle cx="593.9" cy="503.4" r="2.4" fill="rgba(212,175,55,0.055)"/><circle cx="1425.1" cy="236.9" r="3.6" fill="rgba(212,175,55,0.140)"/><circle cx="1897.2" cy="641.2" r="3.5" fill="rgba(212,175,55,0.131)"/><circle cx="1595.5" cy="650.0" r="4.3" fill="rgba(212,175,55,0.131)"/><circle cx="904.2" cy="489.2" r="5.7" fill="rgba(212,175,55,0.110)"/><circle cx="203.3" cy="88.1" r="5.1" fill="rgba(212,175,55,0.072)"/><circle cx="565.0" cy="1236.7" r="5.2" fill="rgba(212,175,55,0.135)"/><circle cx="241.3" cy="213.5" r="2.3" fill="rgba(212,175,55,0.125)"/><circle cx="1886.0" cy="213.1" r="3.0" fill="rgba(212,175,55,0.077)"/><circle cx="1052.9" cy="1149.9" r="3.8" fill="rgba(212,175,55,0.054)"/><circle cx="1502.8" cy="1010.9" r="2.0" fill="rgba(212,175,55,0.089)"/><circle cx="1989.3" cy="1050.2" r="3.3" fill="rgba(212,175,55,0.058)"/><circle cx="528.0" cy="1196.3" r="5.6" fill="rgba(212,175,55,0.065)"/><circle cx="2333.7" cy="504.0" r="5.5" fill="rgba(212,175,55,0.055)"/><circle cx="1654.3" cy="843.6" r="2.9" fill="rgba(212,175,55,0.058)"/><circle cx="1278.6" cy="246.3" r="3.4" fill="rgba(212,175,55,0.097)"/><circle cx="1402.4" cy="926.8" r="5.7" fill="rgba(212,175,55,0.096)"/><circle cx="1827.0" cy="1181.3" r="3.3" fill="rgba(212,175,55,0.126)"/><circle cx="1547.3" cy="728.8" r="4.7" fill="rgba(212,175,55,0.085)"/><circle cx="1194.0" cy="512.1" r="5.0" fill="rgba(212,175,55,0.091)"/><circle cx="1123.0" cy="431.8" r="2.0" fill="rgba(212,175,55,0.104)"/><circle cx="1430.0" cy="4.1" r="2.6" fill="rgba(212,175,55,0.118)"/><circle cx="809.1" cy="409.0" r="2.9" fill="rgba(212,175,55,0.112)"/><circle cx="775.8" cy="410.3" r="5.2" fill="rgba(212,175,55,0.096)"/><circle cx="1505.1" cy="327.7" r="4.4" fill="rgba(212,175,55,0.119)"/><circle cx="2120.9" cy="481.6" r="4.9" fill="rgba(212,175,55,0.115)"/><circle cx="112.4" cy="265.1" r="3.7" fill="rgba(212,175,55,0.077)"/></g>

  <g filter="url(#blur)" opacity="0.9">
    <circle cx="1752.0" cy="621.0" r="210" fill="rgba(255,255,255,.04)"/>
  </g>

  <g><circle cx="1752.0" cy="621.0" r="160" fill="none" stroke="rgba(212,175,55,0.180)" stroke-width="1.2"/><circle cx="1752.0" cy="621.0" r="215" fill="none" stroke="rgba(212,175,55,0.150)" stroke-width="1.2"/><circle cx="1752.0" cy="621.0" r="270" fill="none" stroke="rgba(212,175,55,0.120)" stroke-width="1.2"/><circle cx="1752.0" cy="621.0" r="325" fill="none" stroke="rgba(212,175,55,0.090)" stroke-width="1.2"/></g>

  <g>
    <rect x="1562.0" y="555.0" width="380" height="132" rx="26" fill="rgba(255,255,255,.05)" stroke="rgba(255,255,255,.10)"/>
    <text x="1752.0" y="613.0" text-anchor="middle" font-family="ui-sans-serif,system-ui" font-size="50" fill="rgba(245,247,255,.92)" letter-spacing="2">W3</text>
    <text x="1752.0" y="655.0" text-anchor="middle" font-family="ui-sans-serif,system-ui" font-size="22" fill="rgba(245,247,255,.60)" letter-spacing="1">w3.motorcycle</text>
  </g>

  <g opacity="0.9">
    <circle cx="432.0" cy="1053.0" r="280" fill="rgba(212,175,55,.06)"/>
    <circle cx="432.0" cy="1053.0" r="279" fill="none" stroke="rgba(255,255,255,.06)"/>
  </g>
</svg>